# xmcd CD database file
#
# Track frame offsets:
#	150
#	16388
#	31253
#	45345
#	59858
#	73875
#	93333
#	112880
#	124953
#	140625
#	157215
#	173155
#	186023
#	204828
#	220833
#	235978
#	246663
#	265940
#
# Disc length: 3786 seconds
#
# Revision: 2
# Processed by: cddbd v1.4b41PL1 Copyright (c) Steve Scherf et al.
# Submitted via: Feurio! 1.51.6ß - http://www.feurio.com
#
DISCID=0f0ec812
DTITLE=Kenny Rogers - Twice As Much 2/2
DYEAR=1900
DGENRE=
TTITLE0=Lucille
TTITLE1=Share Your Love With Me
TTITLE2=All I Ever Need Is You - with Dottie West
TTITLE3=Love The World Away
TTITLE4=The Son Of Hickory Holler's Tramp
TTITLE5=Something's Burning
TTITLE6=Coward Of The Country
TTITLE7=Reuben James
TTITLE8=I Don't Need You
TTITLE9=Don't Fall In Love With A Dreamer - with Kim Carnes
TTITLE10=Green Green Grass Of Home
TTITLE11=Ruby Don't Take Your Love To Town
TTITLE12=Buried Treasure
TTITLE13=Just The Way You Are
TTITLE14=Just Dropped In
TTITLE15=Anyone Who Isn't Me Tonight - with Dottie West
TTITLE16=Abraham Martin And John - Precious Memories
TTITLE17=While The Feeling's Good
EXTD=
EXTT0=
EXTT1=
EXTT2=
EXTT3=
EXTT4=
EXTT5=
EXTT6=
EXTT7=
EXTT8=
EXTT9=
EXTT10=
EXTT11=
EXTT12=
EXTT13=
EXTT14=
EXTT15=
EXTT16=
EXTT17=
PLAYORDER=
